<?xml version="1.0" standalone="no"?>
<!DOCTYPE svg PUBLIC "-//W3C//DTD SVG 20010904//EN"
 "http://www.w3.org/TR/2001/REC-SVG-20010904/DTD/svg10.dtd">
<svg version="1.0" xmlns="http://www.w3.org/2000/svg"
 width="225.000000pt" height="225.000000pt" viewBox="0 0 225.000000 225.000000"
 preserveAspectRatio="xMidYMid meet">

<g transform="translate(0.000000,225.000000) scale(0.100000,-0.100000)"
fill="#000000" stroke="none">
<path d="M1118 2063 c5 -76 10 -83 11 -15 0 34 -2 62 -7 62 -4 0 -6 -21 -4
-47z"/>
<path d="M1221 2073 c11 -22 17 -48 14 -60 -3 -13 -1 -23 5 -23 5 0 10 10 10
22 0 12 14 37 32 55 27 27 29 33 13 33 -10 0 -15 -3 -12 -7 8 -7 -21 -43 -34
-43 -4 0 -10 14 -14 30 -4 17 -12 30 -20 30 -9 0 -8 -10 6 -37z"/>
<path d="M991 2058 c4 -24 8 -49 9 -55 0 -7 4 -13 9 -13 5 0 8 8 6 18 -2 9 -7
34 -10 55 -3 20 -10 37 -14 37 -5 0 -5 -19 0 -42z"/>
<path d="M885 2060 c-4 -12 -4 -24 -1 -27 3 -4 6 2 6 13 1 17 1 18 11 2 5 -10
10 -20 9 -23 0 -9 39 -45 50 -45 7 0 -38 69 -65 98 -2 2 -6 -6 -10 -18z"/>
<path d="M811 2061 c-8 -5 -9 -11 -3 -15 5 -3 12 1 16 9 6 17 6 18 -13 6z"/>
<path d="M1436 2041 c-5 -7 -17 -11 -27 -8 -15 4 -17 2 -9 -13 7 -13 7 -21 0
-25 -16 -10 -11 -25 6 -18 11 4 22 -1 30 -12 13 -18 14 -18 14 2 0 11 10 25
23 31 18 9 19 11 4 11 -10 1 -21 11 -26 23 -5 15 -10 18 -15 9z"/>
<path d="M737 2033 c-3 -5 8 -18 24 -28 16 -11 32 -30 35 -42 4 -13 11 -23 16
-23 6 0 7 7 2 18 -4 9 -7 28 -7 41 1 17 -1 20 -7 10 -7 -11 -14 -9 -33 10 -14
12 -27 19 -30 14z"/>
<path d="M870 1995 c0 -8 2 -15 4 -15 2 0 6 7 10 15 3 8 1 15 -4 15 -6 0 -10
-7 -10 -15z"/>
<path d="M624 1975 c-23 -36 3 -95 43 -95 11 0 7 7 -11 21 -21 16 -26 28 -24
53 2 25 8 32 30 34 21 3 30 -3 43 -28 9 -17 13 -41 10 -53 -5 -17 -4 -19 4 -7
17 24 13 58 -9 80 -28 28 -66 26 -86 -5z"/>
<path d="M1048 1993 c7 -3 16 -2 19 1 4 3 -2 6 -13 5 -11 0 -14 -3 -6 -6z"/>
<path d="M1554 1940 c-20 -30 -27 -50 -20 -53 6 -2 23 20 39 50 34 66 22 69
-19 3z"/>
<path d="M1624 1963 c24 -29 15 -68 -22 -87 -15 -9 -20 -15 -12 -16 54 -1 79
71 38 106 l-23 19 19 -22z"/>
<path d="M515 1910 c-6 -10 50 -100 63 -100 18 1 54 38 49 51 -4 11 -6 11 -6
-1 -1 -8 -9 -20 -20 -27 -16 -10 -23 -6 -49 31 -17 24 -28 46 -25 50 3 3 4 6
0 6 -3 0 -9 -4 -12 -10z"/>
<path d="M1671 1874 c-24 -34 -30 -49 -22 -57 8 -8 11 -8 11 2 0 23 52 82 68
76 12 -4 13 -3 2 10 -18 21 -21 20 -59 -31z"/>
<path d="M1086 1892 c-2 -4 11 -8 30 -8 19 0 34 4 34 8 0 4 -13 8 -29 8 -17 0
-32 -4 -35 -8z"/>
<path d="M1093 1863 c-17 -6 -16 -28 2 -43 17 -14 51 -5 59 17 10 26 -26 41
-61 26z"/>
<path d="M1707 1849 c7 -7 15 -10 18 -7 3 3 -2 9 -12 12 -14 6 -15 5 -6 -5z"/>
<path d="M1762 1798 c-41 -37 -43 -42 -27 -57 13 -13 15 -14 10 -1 -3 10 8 29
29 49 30 29 38 32 51 21 8 -7 15 -21 15 -30 0 -23 -49 -63 -67 -55 -8 2 -11 0
-8 -5 9 -15 37 -12 63 6 29 20 29 64 0 92 l-23 21 -43 -41z"/>
<path d="M433 1794 c-4 -11 -13 -14 -31 -9 -22 5 -24 4 -13 -9 11 -13 11 -19
1 -31 -10 -12 -9 -15 5 -15 10 0 24 -8 31 -17 12 -17 13 -16 14 5 0 13 6 22
15 22 19 0 20 16 1 23 -9 4 -12 14 -9 26 6 24 -5 28 -14 5z"/>
<path d="M1117 1783 c10 -10 29 -32 41 -48 23 -29 23 -29 -1 15 -14 25 -33 47
-42 48 -15 3 -15 2 2 -15z"/>
<path d="M1686 1788 c3 -5 10 -6 15 -3 13 9 11 12 -6 12 -8 0 -12 -4 -9 -9z"/>
<path d="M1078 1758 c-8 -13 -20 -34 -27 -48 -12 -24 -11 -24 4 -5 19 23 48
75 41 75 -2 0 -10 -10 -18 -22z"/>
<path d="M1850 1699 c-25 -21 -40 -38 -35 -39 15 0 97 68 88 73 -5 3 -28 -12
-53 -34z"/>
<path d="M1866 1648 c-9 -12 -16 -29 -16 -38 1 -11 4 -10 12 5 25 43 70 58 98
33 12 -11 12 -10 1 5 -20 25 -76 23 -95 -5z"/>
<path d="M1106 1643 c-6 -14 -5 -15 5 -6 7 7 10 15 7 18 -3 3 -9 -2 -12 -12z"/>
<path d="M261 1624 l-21 -27 45 -28 c51 -32 61 -35 71 -16 4 6 4 9 -1 5 -9 -9
-45 9 -45 22 0 6 15 10 34 10 19 0 38 5 41 11 5 7 -4 8 -27 4 -28 -5 -35 -3
-43 16 -14 33 -30 34 -54 3z m46 -10 c3 -8 1 -20 -4 -25 -12 -12 -48 14 -39
29 10 17 36 15 43 -4z"/>
<path d="M209 1523 c-13 -15 -12 -15 7 -3 19 12 27 10 58 -8 39 -23 50 -13 14
12 -29 21 -62 20 -79 -1z"/>
<path d="M1969 1490 c-19 -20 -33 -42 -31 -48 3 -10 29 16 71 71 24 31 -3 16
-40 -23z"/>
<path d="M190 1487 c0 -21 43 -67 63 -67 8 0 25 9 38 20 22 19 22 20 2 8 -29
-16 -73 -1 -90 32 -10 19 -13 21 -13 7z"/>
<path d="M1073 1453 c9 -2 25 -2 35 0 9 3 1 5 -18 5 -19 0 -27 -2 -17 -5z"/>
<path d="M1137 1425 c-9 -19 -13 -35 -9 -35 9 1 42 70 33 70 -4 0 -15 -16 -24
-35z"/>
<path d="M1005 1439 c-11 -16 -2 -17 25 -2 24 12 24 13 3 13 -12 0 -25 -5 -28
-11z"/>
<path d="M1215 1440 c27 -12 43 -12 25 0 -8 5 -22 9 -30 9 -10 0 -8 -3 5 -9z"/>
<path d="M1092 1415 c0 -16 2 -22 5 -12 2 9 2 23 0 30 -3 6 -5 -1 -5 -18z"/>
<path d="M1161 1414 c0 -11 3 -14 6 -6 3 7 2 16 -1 19 -3 4 -6 -2 -5 -13z"/>
<path d="M1211 1423 c-1 -6 -4 -20 -7 -30 -5 -17 -5 -17 6 0 6 10 9 23 6 30
-3 9 -5 9 -5 0z"/>
<path d="M1255 1398 c-12 -26 -13 -29 -1 -15 9 12 16 14 21 8 3 -6 12 -11 18
-11 7 0 4 5 -5 11 -25 14 -23 32 2 19 11 -6 20 -8 20 -6 0 3 -9 10 -20 16 -17
9 -22 6 -35 -22z"/>
<path d="M1992 1411 c-59 -23 -43 -33 17 -10 27 10 51 15 55 12 3 -4 6 -1 6 5
0 16 -27 14 -78 -7z"/>
<path d="M940 1411 c0 -5 7 -12 16 -15 14 -5 15 -4 4 9 -14 17 -20 19 -20 6z"/>
<path d="M1028 1413 c6 -2 18 -2 25 0 6 3 1 5 -13 5 -14 0 -19 -2 -12 -5z"/>
<path d="M188 1403 c7 -3 16 -2 19 1 4 3 -2 6 -13 5 -11 0 -14 -3 -6 -6z"/>
<path d="M228 1392 c8 -6 -3 -16 -38 -32 -57 -27 -62 -35 -22 -38 17 -1 22 1
14 6 -8 6 7 16 43 31 31 13 55 24 53 26 -2 1 -16 5 -33 9 -18 4 -25 3 -17 -2z"/>
<path d="M904 1387 c-4 -6 -4 -9 1 -5 4 4 20 1 36 -7 22 -12 29 -12 35 -2 4 6
4 9 -1 5 -4 -4 -20 -1 -36 7 -22 12 -29 12 -35 2z"/>
<path d="M1030 1386 c7 -7 13 -7 20 0 6 6 3 10 -10 10 -13 0 -16 -4 -10 -10z"/>
<path d="M392 1367 c-8 -10 -2 -13 29 -13 32 -1 37 1 28 12 -14 17 -43 18 -57
1z"/>
<path d="M1098 1373 c12 -2 32 -2 45 0 12 2 2 4 -23 4 -25 0 -35 -2 -22 -4z"/>
<path d="M1786 1371 c-3 -5 12 -11 33 -13 31 -3 37 -1 29 9 -12 15 -54 17 -62
4z"/>
<path d="M643 1345 c-128 -24 -161 -33 -129 -34 24 -1 309 48 315 54 10 11
-72 2 -186 -20z"/>
<path d="M1048 1363 c7 -3 16 -2 19 1 4 3 -2 6 -13 5 -11 0 -14 -3 -6 -6z"/>
<path d="M1178 1363 c7 -3 16 -2 19 1 4 3 -2 6 -13 5 -11 0 -14 -3 -6 -6z"/>
<path d="M1330 1345 c-13 -14 -19 -25 -13 -25 6 0 17 10 25 22 9 14 19 19 28
13 10 -6 9 -11 -5 -22 -16 -11 -16 -13 -3 -13 20 0 30 24 15 39 -16 16 -21 14
-47 -14z"/>
<path d="M1448 1363 c6 -2 18 -2 25 0 6 3 1 5 -13 5 -14 0 -19 -2 -12 -5z"/>
<path d="M850 1345 c-9 -10 -9 -15 -1 -15 6 0 11 5 11 10 0 14 33 12 50 -2 12
-11 12 -10 1 5 -16 21 -44 22 -61 2z"/>
<path d="M969 1332 c-48 -31 -95 -94 -103 -139 -5 -24 -4 -23 6 5 15 43 81
118 127 142 20 10 31 19 25 20 -5 0 -30 -13 -55 -28z"/>
<path d="M1235 1343 c17 -8 48 -32 69 -52 27 -25 34 -29 23 -11 -18 26 -93 80
-111 80 -6 -1 3 -8 19 -17z"/>
<path d="M1605 1340 c66 -11 125 -18 130 -16 15 4 -110 25 -185 31 -42 3 -22
-2 55 -15z"/>
<path d="M2036 1336 c-27 -7 -51 -17 -53 -23 -3 -7 16 -5 52 5 30 8 55 19 55
24 0 4 -1 7 -2 7 -2 -1 -25 -7 -52 -13z"/>
<path d="M397 1332 c-22 -5 -19 -31 6 -46 20 -12 52 2 52 24 0 15 -33 28 -58
22z"/>
<path d="M1784 1325 c-9 -23 13 -43 40 -38 25 5 41 28 30 44 -9 15 -64 10 -70
-6z"/>
<path d="M208 1313 c7 -3 16 -2 19 1 4 3 -2 6 -13 5 -11 0 -14 -3 -6 -6z"/>
<path d="M872 1305 c17 -18 39 -13 37 8 0 9 -2 9 -6 0 -3 -10 -10 -10 -26 -2
-21 11 -21 10 -5 -6z"/>
<path d="M1372 1304 c-12 -8 -22 -21 -22 -29 0 -9 9 -5 25 11 14 14 30 22 35
19 15 -9 -7 -45 -27 -45 -9 0 -14 -3 -10 -6 11 -11 45 6 50 25 4 18 -9 41 -23
41 -3 0 -16 -7 -28 -16z"/>
<path d="M807 1293 c-15 -14 -6 -40 19 -52 26 -12 44 -8 44 11 0 7 -4 7 -13
-1 -17 -13 -54 10 -43 27 11 18 26 14 27 -5 0 -10 3 -13 5 -6 3 7 13 10 22 7
9 -3 6 2 -8 10 -27 17 -43 20 -53 9z"/>
<path d="M1493 1277 c17 -15 24 -33 8 -23 -9 6 -9 0 4 -59 l7 -30 11 34 c12
35 41 61 53 48 4 -4 -2 -17 -13 -30 -11 -12 -26 -32 -32 -45 -7 -12 -16 -20
-22 -17 -5 4 -9 -18 -9 -52 0 -44 -6 -64 -21 -83 l-21 -25 6 28 c4 15 2 27 -4
27 -5 0 -10 -7 -10 -15 0 -8 -4 -15 -10 -15 -5 0 -7 7 -4 15 4 8 1 15 -5 15
-6 0 -11 -7 -11 -15 0 -8 -5 -15 -11 -15 -6 0 -8 7 -5 16 3 9 6 19 6 24 0 5
17 7 38 5 l37 -5 -40 12 c-22 6 -40 7 -42 2 -2 -5 -20 -40 -41 -79 -42 -77
-100 -126 -175 -146 -96 -26 -224 18 -276 96 -36 52 -40 65 -47 144 -8 86 -14
91 -14 10 0 -72 -10 -89 -53 -89 -25 0 -28 3 -25 28 2 22 9 28 32 30 27 3 28
2 16 -13 -7 -9 -20 -13 -27 -10 -9 3 -13 0 -11 -7 10 -28 41 -17 52 18 5 16 2
23 -11 26 -28 8 -57 -7 -63 -31 -5 -20 -11 -16 -84 44 -108 90 -114 90 -24 1
86 -85 145 -184 129 -215 -18 -34 -53 -336 -37 -320 3 2 12 69 22 149 9 80 20
152 23 161 5 12 19 3 62 -43 30 -32 54 -61 52 -63 -2 -3 0 -3 4 0 3 3 13 -1
22 -8 25 -21 101 -48 114 -41 9 5 9 3 0 -6 -7 -7 -43 -31 -80 -52 -90 -50 -73
-49 28 3 107 53 156 55 251 6 77 -40 90 -41 24 -2 -41 24 -76 55 -63 55 4 0
26 -11 49 -24 99 -55 124 -66 145 -66 27 0 36 25 23 70 -6 19 -10 51 -11 70 0
28 -2 31 -9 15 -4 -11 -6 -35 -3 -54 4 -30 2 -33 -14 -26 -45 18 -87 26 -112
21 -16 -4 -7 4 23 20 76 40 148 119 191 208 20 42 55 96 77 119 22 23 59 62
82 87 l41 45 -40 -35 c-22 -19 -59 -53 -82 -74 -67 -63 -61 -35 9 39 75 80 85
95 68 105 -7 4 -10 12 -7 17 3 5 -6 9 -21 8 -27 -1 -65 6 -112 19 -23 6 -23 6
-7 -7z m-587 -405 c-11 -10 -36 -11 -36 -1 0 6 6 16 13 23 10 12 13 12 20 -1
5 -8 6 -17 3 -21z m471 12 c0 -18 -29 -27 -38 -12 -8 13 3 25 25 25 7 0 13 -6
13 -13z m-333 -98 c-3 -15 -13 -26 -23 -25 -10 0 -11 2 -3 6 6 2 12 13 12 22
0 18 10 34 17 27 2 -2 1 -15 -3 -30z m39 17 c-5 -13 -2 -15 11 -10 14 6 17 2
14 -16 -3 -22 -48 -39 -48 -18 0 6 6 8 14 5 8 -3 17 -1 21 5 3 7 -2 11 -15 11
-18 0 -19 3 -10 20 13 24 22 27 13 3z m71 0 c-5 -5 -12 -12 -16 -18 -4 -6 -8
-2 -8 8 0 9 7 17 17 17 9 0 12 -3 7 -7z m68 -18 c4 -17 1 -25 -8 -25 -8 0 -11
6 -7 16 3 9 0 20 -8 25 -11 7 -11 9 2 9 10 0 19 -10 21 -25z m-44 -9 c2 -26
-25 -43 -41 -27 -7 7 -2 17 14 30 13 11 24 20 24 21 0 0 2 -11 3 -24z"/>
<path d="M1145 760 c-3 -5 -2 -10 4 -10 5 0 13 5 16 10 3 6 2 10 -4 10 -5 0
-13 -4 -16 -10z"/>
<path d="M2030 1283 c-17 -6 -40 -32 -40 -45 0 -4 9 1 20 12 20 20 67 27 86
13 5 -5 1 0 -9 10 -20 17 -31 19 -57 10z"/>
<path d="M142 1267 c-8 -10 -2 -12 29 -9 22 2 46 -1 54 -8 10 -8 15 -9 15 -2
0 28 -78 43 -98 19z"/>
<path d="M690 1264 c-25 -8 -57 -12 -72 -9 -20 5 -29 1 -37 -13 -8 -16 3 -31
75 -103 l84 -84 0 67 c0 36 3 74 7 84 4 12 2 15 -8 12 -9 -3 -13 -17 -11 -38
3 -38 2 -38 -32 13 -30 44 -32 51 -11 43 8 -3 27 6 42 19 32 28 26 29 -37 9z"/>
<path d="M121 1230 c-1 -9 6 -26 15 -38 18 -26 75 -30 94 -7 11 14 10 14 -14
6 -34 -13 -74 1 -86 31 -5 14 -9 17 -9 8z"/>
<path d="M1401 1229 c-39 -16 -18 -19 24 -4 22 8 31 14 20 14 -11 0 -31 -5
-44 -10z"/>
<path d="M774 1215 c-13 -33 19 -47 36 -15 7 14 7 20 0 20 -5 0 -10 -7 -10
-15 0 -8 -5 -15 -11 -15 -6 0 -8 9 -4 20 7 23 -3 28 -11 5z"/>
<path d="M1302 1204 c-14 -15 -7 -17 22 -5 15 6 16 9 5 13 -8 3 -20 -1 -27 -8z"/>
<path d="M830 1196 c0 -8 -6 -17 -12 -19 -10 -4 -10 -6 -1 -6 7 -1 17 8 23 19
7 14 7 20 0 20 -5 0 -10 -6 -10 -14z"/>
<path d="M2087 1199 c-10 -6 -35 -9 -54 -7 -31 4 -33 3 -17 -9 26 -19 58 -16
79 7 20 22 18 24 -8 9z"/>
<path d="M910 1189 c0 -4 6 -9 13 -12 8 -3 14 0 14 7 0 7 -6 13 -14 13 -7 0
-13 -4 -13 -8z"/>
<path d="M1337 1166 c-4 -9 -3 -16 1 -16 4 0 8 -9 9 -21 2 -19 -2 -20 -34 -14
-23 4 -33 3 -28 -4 3 -6 1 -11 -4 -11 -6 0 -11 6 -12 13 -1 6 -5 -1 -9 -18 -4
-16 -10 -39 -14 -50 -5 -15 -4 -14 5 3 15 28 29 29 21 0 -4 -16 -2 -19 8 -13
9 6 11 4 5 -6 -17 -30 -48 -58 -58 -52 -6 3 -7 1 -3 -5 4 -6 -6 -18 -23 -26
-28 -15 -38 -52 -13 -50 7 1 18 2 26 3 7 0 35 20 62 43 41 35 44 36 19 9 -16
-19 -43 -42 -60 -52 -16 -11 -25 -19 -19 -19 17 0 92 57 104 80 6 11 8 25 5
30 -4 6 -1 9 5 8 16 -4 38 56 39 102 0 43 -23 91 -32 66z"/>
<path d="M1410 1170 c-11 -7 -5 -8 20 -4 43 8 51 14 19 14 -13 0 -31 -5 -39
-10z"/>
<path d="M760 1134 c-12 -32 -12 -34 0 -34 6 0 10 9 10 20 0 16 7 20 37 20 43
0 41 5 -5 13 -29 6 -34 3 -42 -19z"/>
<path d="M893 1153 c9 -2 23 -2 30 0 6 3 -1 5 -18 5 -16 0 -22 -2 -12 -5z"/>
<path d="M1001 1138 c-15 -25 -14 -26 24 -17 28 6 28 7 5 8 -18 1 -21 4 -11
10 7 5 9 11 4 14 -5 3 -15 -3 -22 -15z"/>
<path d="M955 1140 c15 -24 14 -40 -1 -40 -8 0 -13 6 -11 13 1 7 -7 11 -22 9
-14 -1 -28 3 -33 10 -7 13 -13 -42 -8 -87 5 -55 86 -150 117 -138 11 4 14 2 9
-5 -5 -8 -1 -10 10 -5 12 4 15 3 10 -5 -5 -8 -2 -10 8 -6 9 3 16 10 16 14 0 5
2 14 5 22 3 8 -7 18 -25 26 -55 25 -99 104 -57 101 9 0 9 -2 0 -6 -7 -2 -13
-9 -13 -14 0 -4 7 -5 17 -2 11 4 14 3 9 -5 -4 -7 -2 -20 4 -29 9 -15 10 -14 4
7 -6 22 -5 23 10 11 9 -8 15 -20 12 -27 -3 -9 0 -11 11 -7 12 5 14 3 8 -8 -5
-8 4 -3 18 10 27 24 28 52 1 30 -7 -6 -11 -16 -7 -22 3 -6 1 -7 -6 -3 -9 6 -9
11 0 22 8 10 8 14 0 14 -6 0 -11 -5 -11 -11 0 -5 -5 -7 -11 -3 -8 4 -4 11 10
18 24 13 18 26 -10 26 -13 0 -16 -5 -12 -17 4 -11 3 -14 -5 -9 -7 4 -12 14
-12 23 0 11 -7 14 -25 11 -14 -3 -25 -1 -25 3 0 5 9 9 20 9 15 0 20 7 20 29 0
16 -8 35 -17 42 -15 12 -16 12 -8 -1z m12 -56 c-3 -3 -12 -4 -19 -1 -8 3 -5 6
6 6 11 1 17 -2 13 -5z m-49 -86 c12 -21 19 -38 17 -38 -7 0 -45 63 -45 74 0
12 1 10 28 -36z m68 -79 c3 -6 -5 -3 -20 6 -14 10 -26 19 -26 22 0 7 39 -17
46 -28z"/>
<path d="M1410 1135 c-6 -8 -10 -20 -7 -27 4 -9 6 -7 6 3 1 21 27 32 54 23 13
-4 17 -2 13 5 -10 16 -51 14 -66 -4z"/>
<path d="M2055 1140 l-60 -6 49 -4 49 -5 -48 -37 c-27 -21 -43 -38 -36 -38 7
0 34 17 59 37 26 21 49 38 51 40 1 1 1 5 0 10 -2 4 -31 6 -64 3z"/>
<path d="M120 1128 c0 -5 11 -8 25 -8 21 0 25 -5 25 -30 0 -25 -4 -30 -25 -30
-14 0 -25 -3 -25 -7 0 -5 27 -8 60 -8 36 0 60 4 60 11 0 6 -13 9 -30 6 -28 -4
-30 -2 -30 27 0 28 3 31 32 31 17 0 28 3 24 7 -9 9 -116 10 -116 1z"/>
<path d="M1175 1130 l-40 -7 43 -2 c23 0 42 4 42 9 0 6 -1 9 -2 9 -2 -1 -21
-5 -43 -9z"/>
<path d="M1290 1136 c0 -2 7 -7 16 -10 8 -3 12 -2 9 4 -6 10 -25 14 -25 6z"/>
<path d="M786 1121 c-4 -7 -5 -15 -2 -18 9 -9 19 4 14 18 -4 11 -6 11 -12 0z"/>
<path d="M1456 1103 c-6 -14 -5 -15 5 -6 7 7 10 15 7 18 -3 3 -9 -2 -12 -12z"/>
<path d="M818 1103 c7 -3 16 -2 19 1 4 3 -2 6 -13 5 -11 0 -14 -3 -6 -6z"/>
<path d="M1061 1101 c-10 -6 -9 -10 3 -14 8 -3 18 -2 21 3 8 13 -9 20 -24 11z"/>
<path d="M996 1084 c-9 -23 -8 -24 18 -24 14 0 28 -4 31 -10 8 -13 56 -9 52 5
-2 5 -26 12 -53 15 -44 4 -47 6 -29 17 16 10 17 12 4 13 -9 0 -20 -7 -23 -16z"/>
<path d="M1138 1093 c6 -2 18 -2 25 0 6 3 1 5 -13 5 -14 0 -19 -2 -12 -5z"/>
<path d="M1240 1089 c0 -5 -5 -7 -12 -3 -6 4 -8 3 -5 -3 5 -8 -26 -44 -35 -40
-2 1 3 -3 11 -10 8 -7 19 -10 25 -6 6 3 0 -6 -13 -20 -14 -15 -19 -27 -13 -27
6 0 14 5 17 10 4 6 11 8 16 4 12 -7 39 14 39 30 0 6 -7 3 -14 -6 -7 -10 -15
-18 -18 -18 -7 0 -3 50 6 78 4 12 5 22 2 22 -3 0 -6 -5 -6 -11z"/>
<path d="M1148 1043 c7 -3 16 -2 19 1 4 3 -2 6 -13 5 -11 0 -14 -3 -6 -6z"/>
<path d="M1156 995 c-17 -15 -36 -23 -45 -20 -13 5 -13 4 -4 -6 10 -10 18 -10
38 -1 31 14 38 15 30 3 -3 -5 -1 -12 4 -16 6 -3 8 3 6 15 -2 11 0 22 6 25 11
7 12 25 2 25 -5 0 -21 -11 -37 -25z"/>
<path d="M150 967 c0 -9 -7 -20 -17 -25 -14 -9 -14 -10 5 -16 12 -4 22 -15 22
-24 0 -12 3 -13 12 -4 7 7 21 12 31 12 16 0 17 3 8 14 -9 11 -10 20 -1 36 11
20 10 21 -10 10 -16 -9 -25 -8 -36 1 -11 9 -14 8 -14 -4z"/>
<path d="M2076 971 c-4 -6 -16 -9 -27 -6 -14 5 -17 3 -13 -9 4 -9 1 -23 -6
-31 -10 -12 -9 -15 7 -15 10 0 23 -4 29 -8 5 -5 19 2 31 15 12 13 18 23 12 23
-5 0 -13 10 -18 22 -5 15 -10 18 -15 9z"/>
<path d="M1076 924 c-9 -8 -16 -22 -16 -30 0 -8 -5 -14 -12 -14 -6 0 -9 -2 -6
-5 9 -9 39 7 35 19 -3 6 2 19 11 29 19 21 9 23 -12 1z"/>
<path d="M1110 924 c0 -8 0 -17 1 -20 0 -4 -5 -11 -13 -16 -9 -7 -8 -8 7 -6
12 2 19 10 17 21 -2 9 2 17 8 17 5 0 10 -9 10 -19 0 -18 45 -39 58 -26 3 3 -2
5 -11 5 -16 0 -41 33 -31 42 3 3 -7 8 -21 10 -17 4 -25 1 -25 -8z"/>
<path d="M1098 863 c12 -2 32 -2 45 0 12 2 2 4 -23 4 -25 0 -35 -2 -22 -4z"/>
<path d="M1472 850 c0 -14 2 -19 5 -12 2 6 2 18 0 25 -3 6 -5 1 -5 -13z"/>
<path d="M236 821 c-3 -4 -26 -14 -51 -21 -25 -7 -45 -17 -45 -21 0 -11 -3
-12 56 11 29 10 55 16 58 12 4 -3 4 1 0 11 -7 19 -10 21 -18 8z"/>
<path d="M1482 805 c-1 -11 7 -72 18 -135 16 -92 18 -101 14 -45 -6 73 -31
214 -32 180z"/>
<path d="M1995 810 c27 -12 43 -12 25 0 -8 5 -22 9 -30 9 -10 0 -8 -3 5 -9z"/>
<path d="M836 730 c-9 -98 -9 -120 -3 -126 6 -7 147 86 147 96 0 4 -6 13 -14
19 -11 9 -24 8 -57 -4 -56 -19 -58 -19 -52 3 2 10 0 34 -5 53 -8 31 -9 28 -16
-41z"/>
<path d="M2049 791 c9 -6 -1 -14 -38 -26 -54 -18 -75 -35 -42 -35 11 0 22 4
25 9 3 4 26 14 52 21 42 12 45 15 28 27 -10 7 -23 13 -28 13 -6 0 -5 -4 3 -9z"/>
<path d="M261 774 c-1 -6 -15 -17 -31 -24 -17 -7 -29 -15 -26 -17 2 -3 14 1
26 7 20 11 20 9 -5 -40 -15 -29 -25 -53 -23 -55 2 -2 21 5 43 15 22 10 36 19
32 19 -5 1 -17 -4 -28 -9 -24 -13 -24 -13 2 44 11 26 18 52 15 59 -3 8 -5 8
-5 1z"/>
<path d="M1552 670 c0 -14 2 -19 5 -12 2 6 2 18 0 25 -3 6 -5 1 -5 -13z"/>
<path d="M1926 681 c-4 -5 2 -7 13 -4 27 7 79 -23 84 -49 l4 -23 2 23 c0 12
-8 31 -19 42 -20 20 -74 27 -84 11z"/>
<path d="M318 650 c18 -21 16 -26 -34 -55 -25 -15 -43 -29 -41 -32 3 -3 26 8
52 23 38 22 49 24 55 13 5 -7 6 -17 3 -23 -3 -5 -1 -6 6 -2 13 8 -12 59 -39
79 -12 9 -13 9 -2 -3z"/>
<path d="M1910 625 c0 -24 30 -45 65 -45 19 0 36 4 39 8 3 5 -8 6 -24 4 -21
-3 -36 3 -54 21 -17 17 -26 21 -26 12z"/>
<path d="M1562 605 c0 -16 2 -22 5 -12 2 9 2 23 0 30 -3 6 -5 -1 -5 -18z"/>
<path d="M1866 582 c-2 -4 18 -22 44 -39 27 -18 51 -29 53 -25 5 9 -91 73 -97
64z"/>
<path d="M1571 554 c0 -11 3 -14 6 -6 3 7 2 16 -1 19 -3 4 -6 -2 -5 -13z"/>
<path d="M343 528 c-21 -18 -40 -34 -42 -35 -2 -2 -2 -5 1 -8 3 -3 24 9 47 26
36 26 45 28 59 17 12 -9 12 -6 -2 10 -11 12 -20 22 -22 22 -2 0 -20 -14 -41
-32z"/>
<path d="M1816 521 c-10 -10 -14 -25 -10 -35 6 -15 15 -16 55 -11 40 6 49 4
49 -8 0 -20 -26 -40 -42 -31 -10 5 -10 4 -1 -6 10 -11 16 -10 33 5 24 21 26
53 5 61 -8 3 -29 1 -47 -5 -44 -16 -62 3 -29 30 13 10 19 19 14 19 -6 0 -17
-8 -27 -19z"/>
<path d="M1510 515 c-21 -25 -1 -31 23 -7 17 18 18 22 5 22 -8 0 -21 -7 -28
-15z"/>
<path d="M1570 520 c-12 -7 -10 -11 10 -18 31 -12 39 -6 19 13 -9 9 -19 11
-29 5z"/>
<path d="M665 509 c-10 -14 -1 -21 19 -13 9 3 13 10 10 15 -7 12 -21 11 -29
-2z"/>
<path d="M727 501 c4 -17 1 -21 -18 -21 -13 0 -31 -5 -39 -10 -13 -8 -13 -11
2 -26 14 -15 22 -16 43 -6 14 6 26 18 26 27 1 8 2 23 3 32 0 9 -4 18 -11 20
-7 3 -9 -3 -6 -16z"/>
<path d="M367 485 c3 -8 9 -12 14 -9 12 7 11 11 -5 17 -10 4 -13 1 -9 -8z"/>
<path d="M1520 472 c0 -33 64 -43 80 -12 10 19 8 20 -35 20 -25 0 -45 -4 -45
-8z"/>
<path d="M325 450 c10 -11 20 -20 23 -20 3 0 -3 9 -13 20 -10 11 -20 20 -23
20 -3 0 3 -9 13 -20z"/>
<path d="M1765 460 c-3 -5 1 -10 10 -10 9 0 13 5 10 10 -3 6 -8 10 -10 10 -2
0 -7 -4 -10 -10z"/>
<path d="M407 442 c-10 -10 -17 -29 -17 -43 0 -21 2 -20 18 11 12 25 26 37 47
41 l30 7 -31 1 c-18 1 -38 -6 -47 -17z"/>
<path d="M503 415 c0 -8 4 -12 9 -9 5 3 6 10 3 15 -9 13 -12 11 -12 -6z"/>
<path d="M1744 405 c1 -5 22 -9 46 -7 28 2 46 -1 52 -10 7 -9 8 -8 6 7 -3 17
-11 20 -56 20 -30 0 -51 -4 -48 -10z"/>
<path d="M456 368 c-15 -21 -18 -21 -39 -9 -20 13 -21 13 -8 -2 7 -10 21 -17
31 -17 21 0 55 36 41 44 -5 4 -17 -4 -25 -16z"/>
<path d="M521 348 c-29 -39 -37 -58 -26 -58 8 0 67 91 62 96 -2 3 -19 -14 -36
-38z"/>
<path d="M579 367 c11 -14 11 -21 3 -29 -17 -17 -15 -28 3 -22 20 8 19 38 -2
55 -16 13 -17 12 -4 -4z"/>
<path d="M1660 366 c0 -8 12 -17 26 -20 17 -5 24 -12 20 -21 -3 -9 0 -12 10
-8 8 3 21 0 28 -6 8 -7 16 -8 19 -4 3 4 -19 22 -49 40 -36 21 -54 28 -54 19z"/>
<path d="M1795 350 c4 -6 11 -8 16 -5 14 9 11 15 -7 15 -8 0 -12 -5 -9 -10z"/>
<path d="M1676 310 c4 -19 10 -42 15 -50 11 -18 1 34 -13 65 -5 13 -6 9 -2
-15z"/>
<path d="M540 292 c0 -23 3 -42 8 -42 9 0 8 68 -2 77 -3 3 -6 -12 -6 -35z"/>
<path d="M1569 318 c-15 -10 -14 -14 5 -43 11 -18 26 -41 32 -51 7 -11 14 -17
17 -14 3 3 -8 27 -24 53 -24 38 -27 49 -15 53 20 8 36 -3 36 -24 0 -11 3 -13
10 -6 30 30 -24 57 -61 32z"/>
<path d="M621 270 c-17 -27 -27 -50 -22 -50 5 0 23 23 40 50 17 28 27 50 22
50 -5 0 -23 -22 -40 -50z"/>
<path d="M715 281 c3 -5 -4 -30 -15 -56 -23 -53 -23 -55 -11 -55 5 0 11 8 14
18 3 9 12 33 21 54 14 32 14 37 0 42 -8 3 -13 2 -9 -3z"/>
<path d="M1515 280 c-3 -5 4 -33 17 -61 12 -29 23 -48 25 -42 2 5 -5 30 -16
56 -11 25 -17 48 -14 51 4 3 4 6 0 6 -3 0 -9 -4 -12 -10z"/>
<path d="M750 266 c0 -2 7 -7 16 -10 8 -3 12 -2 9 4 -6 10 -25 14 -25 6z"/>
<path d="M801 238 c1 -7 4 -24 8 -38 4 -14 4 -35 0 -47 -5 -13 -4 -25 1 -28 6
-4 10 1 10 9 0 9 16 34 36 56 20 22 33 40 29 40 -4 0 -16 -12 -27 -26 -23 -28
-38 -19 -38 24 0 12 -4 22 -10 22 -5 0 -10 -6 -9 -12z"/>
<path d="M1418 244 c-9 -8 2 -35 12 -29 4 2 20 -9 35 -25 37 -38 45 -38 44 3
-1 25 -3 27 -6 8 -5 -23 -5 -23 -42 13 -20 20 -40 34 -43 30z"/>
<path d="M1296 198 c-9 -12 -16 -28 -16 -36 0 -19 46 -62 67 -62 14 0 12 3 -7
13 -32 16 -49 61 -32 87 17 27 7 25 -12 -2z"/>
<path d="M1370 201 c7 -13 10 -39 8 -58 -4 -31 -3 -33 9 -17 18 25 16 48 -8
75 l-20 24 11 -24z"/>
<path d="M1176 184 c-37 -36 -7 -105 45 -103 20 1 21 2 4 6 -11 3 -26 10 -32
15 -16 13 -17 70 -1 86 7 7 9 12 6 12 -4 0 -14 -7 -22 -16z"/>
<path d="M1015 178 c-4 -10 -16 -18 -27 -18 -17 0 -18 -3 -8 -15 7 -8 10 -22
6 -31 -5 -12 -1 -14 15 -9 11 4 27 1 35 -6 12 -10 13 -9 8 6 -5 12 -1 23 11
31 17 13 17 14 2 14 -10 0 -22 10 -26 23 -8 19 -10 20 -16 5z"/>
</g>
</svg>
